<?xml version="1.0" encoding="UTF-8" standalone="no"?>
<svg width="118px" height="117px" viewBox="0 0 118 117" version="1.1" xmlns="http://www.w3.org/2000/svg" xmlns:xlink="http://www.w3.org/1999/xlink" xmlns:sketch="http://www.bohemiancoding.com/sketch/ns">
    <!-- Generator: Sketch 3.4.4 (17249) - http://www.bohemiancoding.com/sketch -->
    <title>Imported Layers</title>
    <desc>Created with Sketch.</desc>
    <defs></defs>
    <g id="Finals_v2" stroke="none" stroke-width="1" fill="none" fill-rule="evenodd" sketch:type="MSPage">
        <g id="snapchat.com/brand-guidelines-(Desktop)-Copy" sketch:type="MSArtboardGroup" transform="translate(-588.000000, -2020.000000)">
            <g id="Imported-Layers" sketch:type="MSLayerGroup" transform="translate(588.432495, 2019.144040)">
                <path d="M116.671,59.103 C116.671,91.201 90.651,117.22 58.554,117.22 C26.456,117.22 0.436,91.201 0.436,59.103 C0.436,27.006 26.456,0.986 58.554,0.986 C90.651,0.986 116.671,27.006 116.671,59.103" id="Fill-1" fill="#FFFA37" sketch:type="MSShapeGroup"></path>
                <path d="M59.028,93.622 C58.834,93.622 58.644,93.616 58.454,93.607 C58.333,93.617 58.206,93.622 58.08,93.622 C53.636,93.622 50.784,91.606 48.027,89.656 C46.122,88.31 44.325,87.04 42.208,86.688 C41.175,86.516 40.147,86.43 39.153,86.43 C37.363,86.43 35.95,86.706 34.919,86.908 C34.293,87.03 33.752,87.136 33.341,87.136 C32.912,87.136 32.447,87.043 32.245,86.352 C32.069,85.754 31.942,85.174 31.82,84.614 C31.505,83.171 31.281,82.284 30.677,82.191 C23.629,81.102 21.612,79.618 21.163,78.565 C21.099,78.415 21.063,78.264 21.054,78.114 C21.031,77.71 21.318,77.352 21.718,77.287 C32.551,75.504 37.409,64.431 37.611,63.961 C37.616,63.947 37.622,63.935 37.628,63.922 C38.291,62.579 38.421,61.412 38.015,60.456 C37.272,58.704 34.847,57.934 33.242,57.425 C32.849,57.301 32.477,57.183 32.184,57.067 C28.981,55.801 28.714,54.501 28.84,53.839 C29.055,52.71 30.563,51.924 31.783,51.924 C32.118,51.924 32.412,51.983 32.659,52.098 C34.1,52.773 35.399,53.116 36.519,53.116 C38.067,53.116 38.743,52.465 38.825,52.379 C38.786,51.647 38.737,50.881 38.688,50.09 C38.365,44.969 37.965,38.605 39.585,34.972 C44.442,24.083 54.74,23.237 57.781,23.237 C57.859,23.237 59.115,23.223 59.115,23.223 L59.295,23.222 C62.342,23.222 72.663,24.07 77.523,34.965 C79.143,38.6 78.743,44.97 78.419,50.088 L78.406,50.31 C78.361,51.022 78.318,51.715 78.282,52.378 C78.359,52.457 78.981,53.056 80.384,53.11 L80.386,53.11 C81.452,53.069 82.678,52.728 84.023,52.098 C84.417,51.915 84.855,51.875 85.153,51.875 C85.609,51.875 86.07,51.964 86.453,52.123 L86.477,52.133 C87.565,52.519 88.277,53.281 88.293,54.078 C88.307,54.828 87.734,55.957 84.924,57.067 C84.632,57.182 84.26,57.3 83.866,57.425 C82.259,57.934 79.835,58.704 79.092,60.455 C78.686,61.411 78.816,62.576 79.479,63.921 C79.485,63.934 79.492,63.947 79.497,63.961 C79.699,64.43 84.552,75.499 95.39,77.286 C95.79,77.351 96.076,77.709 96.054,78.113 C96.045,78.265 96.008,78.418 95.943,78.567 C95.496,79.612 93.481,81.095 86.431,82.184 C85.856,82.272 85.632,83.023 85.289,84.596 C85.164,85.169 85.037,85.732 84.863,86.324 C84.713,86.837 84.393,87.077 83.854,87.077 L83.767,87.077 C83.393,87.077 82.862,87.01 82.189,86.878 C80.996,86.645 79.658,86.43 77.955,86.43 C76.961,86.43 75.932,86.516 74.898,86.688 C72.783,87.04 70.988,88.308 69.087,89.652 C66.323,91.606 63.472,93.622 59.028,93.622" id="Fill-2" fill="#FFFFFF" sketch:type="MSShapeGroup"></path>
                <path d="M59.295,24.017 C62.179,24.017 72.116,24.791 76.798,35.289 C78.339,38.745 77.945,45.006 77.628,50.037 C77.577,50.835 77.529,51.608 77.489,52.348 L77.471,52.665 L77.684,52.901 C77.769,52.997 78.571,53.834 80.353,53.903 L80.383,53.904 L80.412,53.903 C81.59,53.859 82.918,53.493 84.36,52.817 C84.572,52.718 84.855,52.67 85.153,52.67 C85.494,52.67 85.856,52.734 86.155,52.859 L86.2,52.878 C86.955,53.142 87.49,53.642 87.499,54.094 C87.503,54.35 87.311,55.27 84.632,56.328 C84.37,56.432 84.025,56.541 83.626,56.667 C81.882,57.221 79.248,58.057 78.361,60.145 C77.861,61.323 77.998,62.712 78.767,64.273 C79.084,65.011 84.06,76.224 95.261,78.069 C95.258,78.121 95.245,78.18 95.215,78.249 C95.025,78.696 93.818,80.24 86.31,81.399 C85.135,81.58 84.847,82.896 84.513,84.428 C84.393,84.975 84.27,85.528 84.101,86.1 C84.05,86.273 84.04,86.283 83.854,86.283 L83.767,86.283 C83.434,86.283 82.928,86.214 82.341,86.099 C81.277,85.891 79.818,85.636 77.955,85.636 C76.915,85.636 75.843,85.727 74.769,85.905 C72.472,86.287 70.602,87.609 68.623,89.007 C65.966,90.887 63.219,92.828 59.028,92.828 C58.845,92.828 58.666,92.822 58.487,92.814 L58.44,92.811 L58.392,92.815 C58.289,92.824 58.186,92.828 58.08,92.828 C53.889,92.828 51.141,90.887 48.485,89.008 C46.506,87.609 44.636,86.287 42.339,85.905 C41.265,85.727 40.193,85.636 39.153,85.636 C37.29,85.636 35.831,85.92 34.766,86.128 C34.181,86.243 33.673,86.342 33.341,86.342 C33.07,86.342 33.064,86.326 33.007,86.13 C32.839,85.557 32.715,84.99 32.595,84.443 C32.261,82.912 31.972,81.588 30.798,81.406 C23.289,80.247 22.083,78.699 21.893,78.253 C21.862,78.183 21.85,78.123 21.847,78.071 C33.048,76.225 38.024,65.014 38.34,64.273 C39.11,62.712 39.247,61.324 38.747,60.146 C37.86,58.057 35.226,57.221 33.482,56.667 C33.083,56.541 32.737,56.432 32.476,56.328 C30.212,55.434 29.516,54.533 29.62,53.987 C29.74,53.358 30.831,52.718 31.783,52.718 C31.997,52.718 32.184,52.752 32.323,52.817 C33.87,53.541 35.282,53.91 36.519,53.91 C38.466,53.91 39.333,53.004 39.425,52.901 L39.636,52.665 L39.619,52.349 C39.579,51.611 39.531,50.838 39.48,50.041 C39.163,45.01 38.769,38.752 40.311,35.295 C44.975,24.836 54.862,24.03 57.781,24.03 C57.853,24.03 59.122,24.018 59.122,24.018 C59.177,24.017 59.233,24.017 59.295,24.017 M59.295,22.428 L59.291,22.428 C59.225,22.428 59.163,22.428 59.104,22.43 C59.104,22.43 57.877,22.442 57.779,22.442 C54.619,22.442 43.912,23.322 38.86,34.649 C37.161,38.459 37.568,44.931 37.894,50.131 C37.933,50.745 37.974,51.381 38.009,51.996 C37.748,52.141 37.27,52.321 36.519,52.321 C35.516,52.321 34.331,52.004 32.997,51.379 C32.643,51.213 32.234,51.13 31.783,51.13 C30.22,51.13 28.351,52.158 28.06,53.69 C27.85,54.794 28.344,56.404 31.891,57.805 C32.212,57.932 32.596,58.053 33.003,58.182 C34.468,58.647 36.683,59.35 37.284,60.766 C37.596,61.5 37.472,62.444 36.916,63.571 C36.904,63.597 36.892,63.622 36.881,63.648 C36.686,64.102 31.998,74.79 21.589,76.503 C20.788,76.635 20.216,77.349 20.261,78.159 C20.275,78.4 20.332,78.64 20.43,78.872 C21.211,80.699 24.507,82.037 30.507,82.968 C30.708,83.24 30.916,84.198 31.044,84.781 C31.169,85.357 31.299,85.951 31.483,86.578 C31.664,87.194 32.134,87.93 33.341,87.93 C33.829,87.93 34.405,87.818 35.071,87.687 C36.071,87.492 37.44,87.224 39.153,87.224 C40.103,87.224 41.089,87.307 42.08,87.471 C44.016,87.794 45.661,88.957 47.566,90.303 C50.294,92.232 53.384,94.416 58.08,94.416 C58.209,94.416 58.339,94.412 58.466,94.402 C58.619,94.409 58.817,94.416 59.028,94.416 C63.725,94.416 66.814,92.232 69.54,90.303 C71.449,88.955 73.093,87.793 75.029,87.471 C76.019,87.307 77.004,87.224 77.955,87.224 C79.59,87.224 80.883,87.432 82.037,87.657 C82.76,87.799 83.342,87.871 83.767,87.871 L83.854,87.872 C84.747,87.872 85.376,87.4 85.626,86.545 C85.806,85.931 85.936,85.353 86.064,84.767 C86.191,84.184 86.399,83.231 86.599,82.961 C92.6,82.03 95.895,80.693 96.675,78.875 C96.775,78.642 96.833,78.4 96.847,78.158 C96.892,77.347 96.319,76.634 95.519,76.503 C85.106,74.786 80.421,64.101 80.227,63.648 C80.216,63.622 80.204,63.595 80.191,63.571 C79.635,62.443 79.512,61.5 79.823,60.766 C80.424,59.35 82.638,58.647 84.104,58.182 C84.514,58.052 84.899,57.93 85.216,57.805 C87.812,56.78 89.114,55.52 89.087,54.063 C89.064,52.917 88.172,51.895 86.755,51.389 L86.751,51.388 C86.274,51.19 85.708,51.082 85.153,51.082 C84.774,51.082 84.212,51.133 83.687,51.379 C82.452,51.958 81.343,52.272 80.386,52.315 C79.751,52.285 79.336,52.126 79.099,51.995 C79.129,51.467 79.163,50.924 79.199,50.357 L79.212,50.136 C79.541,44.932 79.948,38.455 78.248,34.642 C73.194,23.31 62.463,22.428 59.295,22.428" id="Fill-3" fill="#020202" sketch:type="MSShapeGroup"></path>
            </g>
        </g>
    </g>
</svg>