<?xml version="1.0" encoding="UTF-8"?>
<svg width="3914px" height="719px" viewBox="0 0 3914 719" version="1.1" xmlns="http://www.w3.org/2000/svg" xmlns:xlink="http://www.w3.org/1999/xlink">
    <!-- Generator: Sketch 58 (84663) - https://sketch.com -->
    <title>color_logo_transparent</title>
    <desc>Created with Sketch.</desc>
    <defs>
        <linearGradient x1="0%" y1="0%" x2="100%" y2="0%" id="linearGradient-1">
            <stop stop-color="#006838" offset="0%"></stop>
            <stop stop-color="#96CF24" offset="100%"></stop>
        </linearGradient>
    </defs>
    <g id="Page-1" stroke="none" stroke-width="1" fill="none" fill-rule="evenodd">
        <g id="color_logo_transparent" transform="translate(-1.000000, -1.000000)" fill-rule="nonzero">
            <g id="main_text" transform="translate(911.000000, 177.000000)" fill="#201E1F">
                <path d="M291.228866,287.505155 L230.907216,287.505155 L230.907216,155.101031 L145.925773,253.740206 L60.9443299,155.101031 L60.9443299,287.505155 L0.6226804,287.505155 L0.6226804,1.4515464 L145.925773,165.34433 L291.228866,1.4515464 L291.228866,287.505155 Z M404.853608,282.573196 C387.528522,275.74433 372.669416,264.173196 360.276289,247.859794 C347.883162,231.546392 341.686598,210.237801 341.686598,183.934021 C341.686598,157.630241 347.946392,136.38488 360.465979,120.197938 C372.985567,104.010997 387.971134,92.503093 405.42268,85.674227 C422.874227,78.8453608 439.44055,75.4309278 455.121649,75.4309278 C473.331959,75.4309278 490.657045,79.4776632 507.096907,87.571134 C523.53677,95.664605 537.004811,107.55189 547.501031,123.23299 C557.997251,138.914089 563.498282,157.50378 564.004124,179.002062 C564.004124,185.578007 563.877663,191.268729 563.624742,196.074227 C563.371821,200.879725 563.1189,203.914777 562.865979,205.179381 L398.214433,205.179381 C401.249485,219.848797 408.837113,229.839175 420.97732,235.150515 C433.117526,240.461856 444.498969,243.117526 455.121649,243.117526 C468.779381,243.117526 479.654983,240.651546 487.748454,235.719588 C495.841924,230.787629 502.797251,225.160137 508.614433,218.837113 L552.62268,244.25567 C528.84811,276.629553 496.347766,292.816495 455.121649,292.816495 C438.934708,292.816495 422.178694,289.402062 404.853608,282.573196 L404.853608,282.573196 Z M416.424742,136.701031 C406.560825,144.41512 400.996564,153.836426 399.731959,164.964948 L504.061856,164.964948 C503.303093,158.389003 500.773883,152.065979 496.474227,145.995876 C492.17457,139.925773 486.420619,134.930584 479.212371,131.010309 C472.004124,127.090034 463.847423,125.129897 454.742268,125.129897 C439.061168,125.129897 426.28866,128.986942 416.424742,136.701031 L416.424742,136.701031 Z M796.375258,340.049485 C777.785567,357.37457 751.924399,366.037113 718.791753,366.037113 C679.083162,366.037113 645.824055,355.540893 619.014433,334.548454 L646.709278,294.334021 C655.308591,301.162887 665.48866,306.727148 677.249485,311.026804 C689.010309,315.32646 701.466667,317.476289 714.618557,317.476289 C750.280412,317.476289 768.11134,301.289347 768.11134,268.915464 L768.11134,265.501031 C752.936082,277.894158 733.461168,284.090722 709.686598,284.090722 C687.682474,284.090722 668.334021,279.474914 651.641237,270.243299 C634.948454,261.011684 622.175945,248.428866 613.323711,232.494845 C604.471478,216.560825 600.045361,198.982818 600.045361,179.760825 C600.045361,160.285911 604.471478,142.644674 613.323711,126.837113 C622.175945,111.029553 634.885223,98.446735 651.451546,89.08866 C668.017869,79.7305842 687.429553,75.0515464 709.686598,75.0515464 C733.461168,75.0515464 752.936082,81.24811 768.11134,93.641237 L768.11134,78.8453608 L824.259794,78.8453608 L824.259794,268.915464 C824.259794,299.013058 814.964948,322.724399 796.375258,340.049485 Z M742.123711,228.890722 C750.849485,223.958763 757.741581,217.129897 762.8,208.404124 C767.858419,199.678351 770.387629,190.130584 770.387629,179.760825 C770.387629,169.138144 767.858419,159.527148 762.8,150.927835 C757.741581,142.328522 750.849485,135.562887 742.123711,130.630928 C733.397938,125.698969 723.723711,123.23299 713.101031,123.23299 C695.902405,123.23299 682.054983,128.60756 671.558763,139.356701 C661.062543,150.105842 655.814433,163.573883 655.814433,179.760825 C655.814433,196.453608 660.936082,210.04811 671.179381,220.54433 C681.42268,231.04055 695.396564,236.28866 713.101031,236.28866 C723.723711,236.28866 733.397938,233.82268 742.123711,228.890722 L742.123711,228.890722 Z M1038.61031,266.639175 C1033.80481,273.21512 1025.52165,279.095533 1013.76082,284.280412 C1002,289.465292 989.164261,292.057732 975.253608,292.057732 C953.755326,292.057732 935.102405,287.252234 919.294845,277.641237 C903.487285,268.030241 891.410309,254.941581 883.063918,238.375258 C874.717526,221.808935 870.54433,203.408935 870.54433,183.175258 C870.54433,162.941581 874.717526,144.541581 883.063918,127.975258 C891.410309,111.408935 903.487285,98.320275 919.294845,88.709278 C935.102405,79.0982818 953.755326,74.2927835 975.253608,74.2927835 C989.670103,74.2927835 1002.37938,76.7587629 1013.38144,81.6907216 C1024.38351,86.62268 1032.79313,92.882474 1038.61031,100.470103 L1038.61031,78.8453608 L1094.75876,78.8453608 L1094.75876,287.505155 L1038.61031,287.505155 L1038.61031,266.639175 L1038.61031,266.639175 Z M1025.33196,140.494845 C1014.9622,129.492784 1001.05155,123.991753 983.6,123.991753 C965.895533,123.991753 951.921649,129.492784 941.678351,140.494845 C931.435052,151.496907 926.313402,165.723711 926.313402,183.175258 C926.313402,200.120962 931.561512,214.158076 942.057732,225.286598 C952.553952,236.41512 966.401375,241.979381 983.6,241.979381 C1001.30447,241.979381 1015.27835,236.731271 1025.52165,226.235052 C1035.76495,215.738832 1040.8866,201.385567 1040.8866,183.175258 C1040.8866,165.723711 1035.70172,151.496907 1025.33196,140.494845 L1025.33196,140.494845 Z M1337.3732,340.049485 C1318.78351,357.37457 1292.92234,366.037113 1259.78969,366.037113 C1220.0811,366.037113 1186.82199,355.540893 1160.01237,334.548454 L1187.70722,294.334021 C1196.30653,301.162887 1206.4866,306.727148 1218.24742,311.026804 C1230.00825,315.32646 1242.4646,317.476289 1255.61649,317.476289 C1291.27835,317.476289 1309.10928,301.289347 1309.10928,268.915464 L1309.10928,265.501031 C1293.93402,277.894158 1274.45911,284.090722 1250.68454,284.090722 C1228.68041,284.090722 1209.33196,279.474914 1192.63918,270.243299 C1175.94639,261.011684 1163.17388,248.428866 1154.32165,232.494845 C1145.46942,216.560825 1141.0433,198.982818 1141.0433,179.760825 C1141.0433,160.285911 1145.46942,142.644674 1154.32165,126.837113 C1163.17388,111.029553 1175.88316,98.446735 1192.44948,89.08866 C1209.01581,79.7305842 1228.42749,75.0515464 1250.68454,75.0515464 C1274.45911,75.0515464 1293.93402,81.24811 1309.10928,93.641237 L1309.10928,78.8453608 L1365.25773,78.8453608 L1365.25773,268.915464 C1365.25773,299.013058 1355.96289,322.724399 1337.3732,340.049485 L1337.3732,340.049485 Z M1283.12165,228.890722 C1291.84742,223.958763 1298.73952,217.129897 1303.79794,208.404124 C1308.85636,199.678351 1311.38557,190.130584 1311.38557,179.760825 C1311.38557,169.138144 1308.85636,159.527148 1303.79794,150.927835 C1298.73952,142.328522 1291.84742,135.562887 1283.12165,130.630928 C1274.39588,125.698969 1264.72165,123.23299 1254.09897,123.23299 C1236.90034,123.23299 1223.05292,128.60756 1212.5567,139.356701 C1202.06048,150.105842 1196.81237,163.573883 1196.81237,179.760825 C1196.81237,196.453608 1201.93402,210.04811 1212.17732,220.54433 C1222.42062,231.04055 1236.3945,236.28866 1254.09897,236.28866 C1264.72165,236.28866 1274.39588,233.82268 1283.12165,228.890722 L1283.12165,228.890722 Z M1467.88041,277.830928 C1450.55533,268.093471 1436.83436,254.878351 1426.71753,238.185567 C1416.60069,221.492784 1411.54227,203.282474 1411.54227,183.554639 C1411.54227,164.079725 1416.60069,145.995876 1426.71753,129.303093 C1436.83436,112.610309 1450.55533,99.395189 1467.88041,89.657732 C1485.2055,79.9202749 1504.11134,75.0515464 1524.59794,75.0515464 C1545.08454,75.0515464 1564.05361,79.9202749 1581.50515,89.657732 C1598.9567,99.395189 1612.80412,112.610309 1623.04742,129.303093 C1633.29072,145.995876 1638.41237,164.079725 1638.41237,183.554639 C1638.41237,203.282474 1633.29072,221.492784 1623.04742,238.185567 C1612.80412,254.878351 1598.9567,268.093471 1581.50515,277.830928 C1564.05361,287.568385 1545.08454,292.437113 1524.59794,292.437113 C1504.11134,292.437113 1485.2055,287.568385 1467.88041,277.830928 Z M1495.76495,132.527835 C1486.91271,137.712715 1479.95739,144.794502 1474.89897,153.773196 C1469.84055,162.75189 1467.31134,172.679038 1467.31134,183.554639 C1467.31134,194.936082 1469.77732,205.116151 1474.70928,214.094845 C1479.64124,223.07354 1486.4701,230.155326 1495.19588,235.340206 C1503.92165,240.525086 1513.72234,243.117526 1524.59794,243.117526 C1535.22062,243.117526 1544.89485,240.525086 1553.62062,235.340206 C1562.34639,230.155326 1569.23849,223.010309 1574.29691,213.905155 C1579.35533,204.8 1581.88454,194.683162 1581.88454,183.554639 C1581.88454,172.679038 1579.35533,162.75189 1574.29691,153.773196 C1569.23849,144.794502 1562.34639,137.712715 1553.62062,132.527835 C1544.89485,127.342955 1535.22062,124.750515 1524.59794,124.750515 C1514.22818,124.750515 1504.61718,127.342955 1495.76495,132.527835 L1495.76495,132.527835 Z M1859.40206,98.193814 C1872.42749,113.621993 1878.94021,135.626117 1878.94021,164.206186 L1878.94021,287.505155 L1820.89485,287.505155 L1820.89485,164.206186 C1820.89485,136.131959 1807.49003,122.094845 1780.68041,122.094845 C1770.31065,122.094845 1760.95258,126.204811 1752.60619,134.424742 C1744.25979,142.644674 1740.33952,156.871478 1740.84536,177.105155 L1740.84536,287.505155 L1684.31753,287.505155 L1684.31753,78.8453608 L1740.84536,78.8453608 L1740.84536,97.435052 C1747.67423,90.606186 1756.27354,85.168385 1766.6433,81.1216495 C1777.01306,77.0749141 1787.00344,75.0515464 1796.61443,75.0515464 C1825.44742,75.0515464 1846.37663,82.7656357 1859.40206,98.193814 L1859.40206,98.193814 Z M2256.80412,287.505155 L2051.17938,287.505155 L2051.17938,10.1773196 L2111.50103,10.1773196 L2111.50103,235.529897 L2256.80412,235.529897 L2256.80412,287.505155 Z M2448.39175,266.639175 C2443.58625,273.21512 2435.30309,279.095533 2423.54227,284.280412 C2411.78144,289.465292 2398.9457,292.057732 2385.03505,292.057732 C2363.53677,292.057732 2344.88385,287.252234 2329.07629,277.641237 C2313.26873,268.030241 2301.19175,254.941581 2292.84536,238.375258 C2284.49897,221.808935 2280.32577,203.408935 2280.32577,183.175258 C2280.32577,162.941581 2284.49897,144.541581 2292.84536,127.975258 C2301.19175,111.408935 2313.26873,98.320275 2329.07629,88.709278 C2344.88385,79.0982818 2363.53677,74.2927835 2385.03505,74.2927835 C2399.45155,74.2927835 2412.16082,76.7587629 2423.16289,81.6907216 C2434.16495,86.62268 2442.57457,92.882474 2448.39175,100.470103 L2448.39175,78.8453608 L2504.54021,78.8453608 L2504.54021,287.505155 L2448.39175,287.505155 L2448.39175,266.639175 L2448.39175,266.639175 Z M2435.1134,140.494845 C2424.74364,129.492784 2410.83299,123.991753 2393.38144,123.991753 C2375.67698,123.991753 2361.70309,129.492784 2351.45979,140.494845 C2341.21649,151.496907 2336.09485,165.723711 2336.09485,183.175258 C2336.09485,200.120962 2341.34296,214.158076 2351.83918,225.286598 C2362.3354,236.41512 2376.18282,241.979381 2393.38144,241.979381 C2411.08591,241.979381 2425.05979,236.731271 2435.30309,226.235052 C2445.54639,215.738832 2450.66804,201.385567 2450.66804,183.175258 C2450.66804,165.723711 2445.48316,151.496907 2435.1134,140.494845 Z M2560.68866,287.505155 L2560.68866,0.6927835 L2616.83711,0.6927835 L2616.83711,100.470103 C2622.6543,92.882474 2631.06392,86.62268 2642.06598,81.6907216 C2653.06804,76.7587629 2665.77732,74.2927835 2680.19381,74.2927835 C2701.6921,74.2927835 2720.34502,79.0982818 2736.15258,88.709278 C2751.96014,98.320275 2764.03711,111.408935 2772.38351,127.975258 C2780.7299,144.541581 2784.90309,162.941581 2784.90309,183.175258 C2784.90309,203.408935 2780.7299,221.808935 2772.38351,238.375258 C2764.03711,254.941581 2751.96014,268.030241 2736.15258,277.641237 C2720.34502,287.252234 2701.6921,292.057732 2680.19381,292.057732 C2666.28316,292.057732 2653.44742,289.465292 2641.6866,284.280412 C2629.92577,279.095533 2621.64261,273.21512 2616.83711,266.639175 L2616.83711,287.505155 L2560.68866,287.505155 L2560.68866,287.505155 Z M2629.92577,226.235052 C2640.16907,236.731271 2654.14296,241.979381 2671.84742,241.979381 C2689.04605,241.979381 2702.89347,236.41512 2713.38969,225.286598 C2723.88591,214.158076 2729.13402,200.120962 2729.13402,183.175258 C2729.13402,165.723711 2724.01237,151.496907 2713.76907,140.494845 C2703.52577,129.492784 2689.55189,123.991753 2671.84742,123.991753 C2654.39588,123.991753 2640.48522,129.492784 2630.11546,140.494845 C2619.7457,151.496907 2614.56082,165.723711 2614.56082,183.175258 C2614.56082,201.385567 2619.68247,215.738832 2629.92577,226.235052 L2629.92577,226.235052 Z M2819.4268,259.810309 L2849.01856,220.354639 C2858.12371,226.677663 2868.74639,231.989003 2880.8866,236.28866 C2893.0268,240.588316 2904.91409,242.738144 2916.54845,242.738144 C2925.14777,242.738144 2932.29278,240.967698 2937.98351,237.426804 C2943.67423,233.885911 2946.51959,229.459794 2946.51959,224.148454 C2946.51959,218.837113 2943.29485,215.106529 2936.84536,212.956701 C2930.39588,210.806873 2924.13608,209.289347 2918.06598,208.404124 C2911.99588,207.5189 2908.0756,206.949828 2906.30515,206.696907 C2891.1299,204.167698 2878.04124,201.132646 2867.03918,197.591753 C2856.03711,194.050859 2846.04674,187.727835 2837.06804,178.62268 C2828.08935,169.517526 2823.6,156.997938 2823.6,141.063918 C2823.6,114.760137 2833.14777,97.182131 2852.2433,88.329897 C2871.33883,79.4776632 2890.49759,75.0515464 2909.71959,75.0515464 C2926.15945,75.0515464 2941.33471,77.4542955 2955.24536,82.2597938 C2969.15601,87.065292 2982.94021,94.652921 2996.59794,105.02268 L2967.00619,143.719588 C2957.14227,137.902405 2947.40481,133.223368 2937.79381,129.682474 C2928.18282,126.141581 2918.19244,124.371134 2907.82268,124.371134 C2901.49966,124.371134 2895.36632,125.762199 2889.42268,128.54433 C2883.47904,131.32646 2880.50722,135.120275 2880.50722,139.925773 C2880.50722,145.995876 2884.61718,150.295533 2892.83711,152.824742 C2901.05704,155.353952 2910.09897,157.250859 2919.96289,158.515464 C2937.66735,161.550515 2951.83093,164.712027 2962.45361,168 C2973.07629,171.287973 2982.49759,177.421306 2990.71753,186.4 C2998.93746,195.378694 3003.04742,208.087973 3003.04742,224.527835 C3003.04742,246.279038 2995.58625,263.035052 2980.66392,274.795876 C2965.74158,286.556701 2944.62268,292.437113 2917.30722,292.437113 C2879.36907,292.437113 2846.74227,281.561512 2819.4268,259.810309 Z" id="Shape"></path>
            </g>
            <g id="SvgjsG3880" transform="translate(0.072165, 0.731959)" fill="url(#linearGradient-1)">
                <path d="M456.757857,0.268041 L264.097813,0.268041 L97.2578572,96.5980632 L0.927835,263.438019 L0.927835,456.090074 L97.2578572,622.938019 L264.097813,719.268041 L456.749868,719.268041 L623.597813,622.938019 L719.927835,456.098063 L719.927835,263.438019 L623.597813,96.5980632 L456.757857,0.268041 Z M671.994499,443.25193 L588.510613,587.850819 L443.911724,671.334705 L276.943946,671.334705 L132.345057,587.850819 L48.8611683,443.25193 L48.8611683,276.284152 L132.345057,131.685263 L276.943946,48.2013743 L443.911724,48.2013743 L588.510613,131.685263 L671.994499,276.284152 L671.994499,443.25193 Z" id="Shape"></path>
                <path d="M431.029865,96.268041 L289.825804,96.268041 L167.529865,166.870071 L96.927835,289.16601 L96.927835,430.378055 L167.529865,552.66601 L289.825804,623.268041 L431.029865,623.268041 L553.325804,552.66601 L623.927835,430.370071 L623.927835,289.16601 L553.325804,166.878056 L431.029865,96.268041 Z M576.018742,417.538419 L518.256349,517.58857 L418.190228,575.358948 L302.66544,575.358948 L202.607304,517.58857 L144.836926,417.538419 L144.836926,301.997662 L202.59932,201.94751 L302.66544,144.177132 L418.198213,144.177132 L518.256349,201.94751 L576.018742,301.997662 L576.018742,417.538419 Z" id="Shape"></path>
                <path d="M405.309859,192.268041 L315.545811,192.268041 L237.801883,237.150065 L192.927835,314.886017 L192.927835,404.650065 L237.801883,482.386017 L315.545811,527.268041 L405.309859,527.268041 L483.053787,482.386017 L527.927835,404.650065 L527.927835,314.886017 L483.053787,237.150065 L405.309859,192.268041 Z M480.070692,391.832327 L448.014382,447.354588 L392.492121,479.410898 L328.363549,479.410898 L272.833311,447.346613 L240.784978,391.832327 L240.784978,327.703755 L272.841287,272.181493 L328.363549,240.125184 L392.484144,240.125184 L448.014382,272.189469 L480.070692,327.703755 L480.070692,391.832327 Z" id="Shape"></path>
            </g>
        </g>
    </g>
</svg>